<svg width="210" height="210" viewBox="0 0 210 210" fill="none" xmlns="http://www.w3.org/2000/svg">
<path d="M118.125 36.0938H144.375V42.6562H118.125C117.255 42.6562 116.42 42.3105 115.805 41.6952C115.189 41.0798 114.844 40.2452 114.844 39.375C114.844 38.5048 115.189 37.6702 115.805 37.0548C116.42 36.4395 117.255 36.0938 118.125 36.0938Z" fill="black"/>
<path d="M29.5312 68.9062H121.406V147.656H29.5312V68.9062Z" fill="#B38B63"/>
<path d="M114.844 68.9062V114.844C114.844 120.065 112.77 125.073 109.077 128.765C105.385 132.457 100.378 134.531 95.1562 134.531H29.5312V147.656H121.406V68.9062H114.844Z" fill="#A97C50"/>
<path d="M141.094 42.6562V62.3438C141.094 67.5652 143.168 72.5728 146.86 76.2649C150.552 79.957 155.56 82.0312 160.781 82.0312V95.1562H180.469V82.0312C182.441 81.0453 184.099 79.5297 185.258 77.6543C186.417 75.7789 187.031 73.6178 187.031 71.4131V42.6562H141.094Z" fill="#FFBCAB"/>
<path d="M180.469 95.1562H154.219C148.997 95.1562 143.99 97.2305 140.298 100.923C136.605 104.615 134.531 109.622 134.531 114.844V187.031H200.156V114.844C200.156 109.622 198.082 104.615 194.39 100.923C190.698 97.2305 185.69 95.1562 180.469 95.1562Z" fill="#101010"/>
<path d="M180.469 141.094V121.406C180.469 117.925 179.086 114.587 176.625 112.125C174.163 109.664 170.825 108.281 167.344 108.281C163.863 108.281 160.524 109.664 158.063 112.125C155.602 114.587 154.219 117.925 154.219 121.406V134.531C154.219 136.272 153.527 137.941 152.297 139.172C151.066 140.402 149.397 141.094 147.656 141.094H108.281V167.344H154.219C161.181 167.344 167.857 164.578 172.78 159.655C177.703 154.732 180.469 148.056 180.469 141.094Z" fill="#55CB95"/>
<path d="M108.281 137.812H88.5938V147.656V160.781V170.625H108.281V167.344V141.094V137.812Z" fill="black"/>
<path d="M190.312 42.6562V36.0938C190.312 29.1318 187.547 22.455 182.624 17.5322C177.701 12.6094 171.024 9.84375 164.062 9.84375C157.101 9.84375 150.424 12.6094 145.501 17.5322C140.578 22.455 137.812 29.1318 137.812 36.0938V42.6562H190.312Z" fill="black"/>
<path d="M75.4688 95.1562L85.3125 101.719V68.9062H65.625V101.719L75.4688 95.1562Z" fill="#55CB95"/>
<path d="M62.3438 147.656C62.3438 151.137 63.7266 154.476 66.188 156.937C68.6494 159.398 71.9878 160.781 75.4688 160.781H88.5938V147.656H62.3438Z" fill="#FFBCAB"/>
<path d="M134.531 187.031H200L199.5 189.5L185.5 194L170.5 199L164 200.156H134.531V187.031Z" fill="#6D6E71"/>
</svg>
