<svg width="414" height="715" viewBox="0 0 414 715" fill="none" xmlns="http://www.w3.org/2000/svg">
<path d="M159 137.5H259V162.5H159C155.685 162.5 152.505 161.183 150.161 158.839C147.817 156.495 146.5 153.315 146.5 150C146.5 146.685 147.817 143.505 150.161 141.161C152.505 138.817 155.685 137.5 159 137.5Z" fill="#D1EAE1"/>
<path d="M-178.5 262.5H171.5V562.5H-178.5V262.5Z" fill="#D1EAE1"/>
<path d="M146.5 262.5V437.5C146.5 457.391 138.598 476.468 124.533 490.533C110.468 504.598 91.3912 512.5 71.5 512.5H-178.5V562.5H171.5V262.5H146.5Z" fill="#D1EAE1"/>
<path d="M246.5 162.5V237.5C246.5 257.391 254.402 276.468 268.467 290.533C282.532 304.598 301.609 312.5 321.5 312.5V362.5H396.5V312.5C404.012 308.744 410.33 302.97 414.745 295.826C419.161 288.682 421.5 280.449 421.5 272.05V162.5H246.5Z" fill="#D1EAE1"/>
<path d="M396.5 362.5H296.5C276.609 362.5 257.532 370.402 243.467 384.467C229.402 398.532 221.5 417.609 221.5 437.5V712.5H471.5V437.5C471.5 417.609 463.598 398.532 449.533 384.467C435.468 370.402 416.391 362.5 396.5 362.5Z" fill="#D1EAE1"/>
<path d="M396.5 537.5V462.5C396.5 449.239 391.232 436.521 381.855 427.145C372.479 417.768 359.761 412.5 346.5 412.5C333.239 412.5 320.521 417.768 311.145 427.145C301.768 436.521 296.5 449.239 296.5 462.5V512.5C296.5 519.13 293.866 525.489 289.178 530.178C284.489 534.866 278.13 537.5 271.5 537.5H121.5V637.5H296.5C323.022 637.5 348.457 626.964 367.211 608.211C385.964 589.457 396.5 564.022 396.5 537.5Z" fill="#D1EAE1"/>
<path d="M121.5 525H46.5V562.5V612.5V650H121.5V637.5V537.5V525Z" fill="#D1EAE1"/>
<path d="M434 162.5V137.5C434 110.978 423.464 85.543 404.711 66.7893C385.957 48.0357 360.522 37.5 334 37.5C307.478 37.5 282.043 48.0357 263.289 66.7893C244.536 85.543 234 110.978 234 137.5V162.5H434Z" fill="#D1EAE1"/>
<path d="M-3.5 362.5L34 387.5V262.5H-41V387.5L-3.5 362.5Z" fill="#D1EAE1"/>
<path d="M-53.5 562.5C-53.5 575.761 -48.2321 588.479 -38.8553 597.855C-29.4785 607.232 -16.7608 612.5 -3.5 612.5H46.5V562.5H-53.5Z" fill="#D1EAE1"/>
<path d="M221.5 712.5H471.5V762.5H221.5V712.5Z" fill="#D1EAE1"/>
</svg>
