<svg width="222" height="105" viewBox="0 0 222 105" fill="none" xmlns="http://www.w3.org/2000/svg">
<path d="M50.0625 26.2969H61.1875V29.0781H50.0625C49.6937 29.0781 49.34 28.9316 49.0792 28.6708C48.8184 28.41 48.6719 28.0563 48.6719 27.6875C48.6719 27.3187 48.8184 26.965 49.0792 26.7042C49.34 26.4434 49.6937 26.2969 50.0625 26.2969Z" fill="black"/>
<path d="M12.5156 40.2031H51.4531V73.5781H12.5156V40.2031Z" fill="#B38B63"/>
<path d="M48.6719 40.2031V59.6719C48.6719 61.8848 47.7928 64.007 46.228 65.5718C44.6633 67.1366 42.541 68.0156 40.3281 68.0156H12.5156V73.5781H51.4531V40.2031H48.6719Z" fill="#A97C50"/>
<path d="M59.7969 29.0781V37.4219C59.7969 39.6348 60.6759 41.757 62.2407 43.3218C63.8055 44.8866 65.9277 45.7656 68.1406 45.7656V51.3281H76.4844V45.7656C77.3201 45.3478 78.023 44.7055 78.5142 43.9106C79.0054 43.1158 79.2656 42.1999 79.2656 41.2656V29.0781H59.7969Z" fill="#FFBCAB"/>
<path d="M76.4844 51.3281H65.3594C63.1465 51.3281 61.0242 52.2072 59.4595 53.772C57.8947 55.3367 57.0156 57.459 57.0156 59.6719V90.2656H84.8281V59.6719C84.8281 57.459 83.9491 55.3367 82.3843 53.772C80.8195 52.2072 78.6973 51.3281 76.4844 51.3281Z" fill="#101010"/>
<path d="M76.4844 70.7969V62.4531C76.4844 60.9779 75.8983 59.563 74.8552 58.5198C73.812 57.4767 72.3971 56.8906 70.9219 56.8906C69.4466 56.8906 68.0318 57.4767 66.9886 58.5198C65.9454 59.563 65.3594 60.9779 65.3594 62.4531V68.0156C65.3594 68.7533 65.0664 69.4607 64.5448 69.9823C64.0232 70.5039 63.3158 70.7969 62.5781 70.7969H45.8906V81.9219H65.3594C68.3099 81.9219 71.1396 80.7498 73.2259 78.6634C75.3123 76.5771 76.4844 73.7474 76.4844 70.7969Z" fill="#55CB95"/>
<path d="M45.8906 69.4062H37.5469V73.5781V79.1406V83.3125H45.8906V81.9219V70.7969V69.4062Z" fill="black"/>
<path d="M80.6562 29.0781V26.2969C80.6562 23.3463 79.4842 20.5167 77.3978 18.4303C75.3115 16.344 72.4818 15.1719 69.5312 15.1719C66.5807 15.1719 63.751 16.344 61.6647 18.4303C59.5783 20.5167 58.4062 23.3463 58.4062 26.2969V29.0781H80.6562Z" fill="black"/>
<path d="M31.9844 51.3281L36.1562 54.1094V40.2031H27.8125V54.1094L31.9844 51.3281Z" fill="#55CB95"/>
<path d="M26.4219 73.5781C26.4219 75.0534 27.0079 76.4682 28.0511 77.5114C29.0943 78.5546 30.5091 79.1406 31.9844 79.1406H37.5469V73.5781H26.4219Z" fill="#FFBCAB"/>
<path d="M57.0156 90.2656H84.8281V95.8281H57.0156V90.2656Z" fill="#6D6E71"/>
<path d="M117.992 54.888H107.432L104.808 65H96.808L109.8 19.88H116.136L129.192 65H120.744L117.992 54.888ZM109.16 48.232H116.584L114.024 37.8L113 30.76H112.744L111.656 37.864L109.16 48.232ZM147.687 65V45.544C147.687 43.1973 147.409 41.5547 146.855 40.616C146.3 39.6773 145.361 39.208 144.039 39.208C142.929 39.208 141.969 39.5493 141.159 40.232C140.348 40.9147 139.772 41.768 139.431 42.792V65H131.815V33H137.895L138.791 36.712H138.983C139.751 35.4747 140.796 34.4293 142.119 33.576C143.441 32.68 145.169 32.232 147.303 32.232C148.583 32.232 149.713 32.424 150.695 32.808C151.719 33.192 152.572 33.832 153.255 34.728C153.937 35.5813 154.449 36.7547 154.791 38.248C155.132 39.6987 155.303 41.512 155.303 43.688V65H147.687ZM158.069 33H161.589V26.984L169.205 24.616V33H175.413V39.784H169.205V53.736C169.205 55.5707 169.375 56.872 169.717 57.64C170.101 58.408 170.762 58.792 171.701 58.792C172.341 58.792 172.917 58.728 173.429 58.6C173.941 58.472 174.495 58.28 175.093 58.024L176.053 64.104C175.114 64.5733 174.026 64.9573 172.789 65.256C171.551 65.5973 170.25 65.768 168.885 65.768C166.453 65.768 164.618 65.064 163.381 63.656C162.186 62.248 161.589 59.88 161.589 56.552V39.784H158.069V33ZM179.254 34.92C180.534 34.152 182.134 33.5333 184.054 33.064C185.974 32.5947 188.15 32.36 190.582 32.36C194.208 32.36 196.726 33.2987 198.134 35.176C199.584 37.0533 200.31 39.72 200.31 43.176C200.31 45.1813 200.246 47.1653 200.118 49.128C200.032 51.048 199.968 52.9467 199.926 54.824C199.883 56.6587 199.904 58.4507 199.99 60.2C200.118 61.9067 200.416 63.528 200.886 65.064H194.678L193.462 61.16H193.206C192.523 62.3973 191.563 63.4213 190.326 64.232C189.088 65.0427 187.531 65.448 185.654 65.448C183.136 65.448 181.152 64.616 179.702 62.952C178.251 61.2453 177.526 58.984 177.526 56.168C177.526 52.328 178.891 49.5973 181.622 47.976C184.352 46.3547 188.043 45.672 192.694 45.928C192.907 43.4533 192.736 41.6613 192.182 40.552C191.67 39.4427 190.539 38.888 188.79 38.888C187.51 38.888 186.187 39.0373 184.822 39.336C183.456 39.6347 182.24 40.0613 181.174 40.616L179.254 34.92ZM188.406 58.92C189.558 58.92 190.496 58.6427 191.222 58.088C191.947 57.4907 192.48 56.8507 192.822 56.168V50.856C191.84 50.728 190.902 50.7067 190.006 50.792C189.11 50.8773 188.32 51.0693 187.638 51.368C186.955 51.6667 186.4 52.1147 185.974 52.712C185.59 53.2667 185.398 53.992 185.398 54.888C185.398 56.2107 185.654 57.2133 186.166 57.896C186.72 58.5787 187.467 58.92 188.406 58.92ZM220.731 40.552C219.707 40.168 218.768 39.976 217.915 39.976C216.763 39.976 215.76 40.296 214.907 40.936C214.096 41.576 213.542 42.472 213.243 43.624V65H205.627V33H211.451L212.347 36.84H212.603C213.158 35.432 213.947 34.344 214.971 33.576C216.038 32.7653 217.254 32.36 218.619 32.36C219.643 32.36 220.646 32.5733 221.627 33L220.731 40.552Z" fill="black"/>
<path d="M108.208 95H99.088V78.32H100.576V93.656H108.208V95ZM118.587 86.576V93.008C118.651 93.6 119.171 93.952 120.147 94.064L120.075 95.216C118.843 95.216 117.939 94.896 117.363 94.256C115.859 94.912 114.355 95.24 112.851 95.24C111.779 95.24 110.963 94.936 110.403 94.328C109.843 93.704 109.563 92.824 109.563 91.688C109.563 90.536 109.843 89.688 110.403 89.144C110.979 88.584 111.875 88.24 113.091 88.112L117.171 87.704V86.576C117.171 85.68 116.971 85.04 116.571 84.656C116.187 84.256 115.667 84.056 115.011 84.056C113.987 84.056 112.659 84.152 111.027 84.344L110.283 84.416L110.211 83.264C111.971 82.928 113.507 82.76 114.819 82.76C116.147 82.76 117.107 83.072 117.699 83.696C118.291 84.32 118.587 85.28 118.587 86.576ZM111.051 91.592C111.051 93.208 111.715 94.016 113.043 94.016C113.619 94.016 114.251 93.952 114.939 93.824C115.627 93.68 116.171 93.536 116.571 93.392L117.171 93.176V88.832L113.259 89.24C112.475 89.304 111.907 89.528 111.555 89.912C111.219 90.296 111.051 90.856 111.051 91.592ZM129.892 83H131.308V95H129.892V94.112C128.66 94.864 127.428 95.24 126.196 95.24C124.564 95.24 123.484 94.824 122.956 93.992C122.444 93.16 122.188 91.584 122.188 89.264V83H123.604V89.24C123.604 91.096 123.772 92.344 124.108 92.984C124.46 93.624 125.212 93.944 126.364 93.944C126.924 93.944 127.5 93.864 128.092 93.704C128.684 93.528 129.132 93.352 129.436 93.176L129.892 92.936V83ZM136.333 95H134.917V83H136.333V83.888C137.677 83.136 138.981 82.76 140.245 82.76C141.845 82.76 142.909 83.184 143.437 84.032C143.981 84.88 144.253 86.432 144.253 88.688V95H142.813V88.76C142.813 86.92 142.637 85.68 142.285 85.04C141.933 84.384 141.181 84.056 140.029 84.056C139.469 84.056 138.877 84.144 138.253 84.32C137.645 84.48 137.173 84.648 136.837 84.824L136.333 85.064V95ZM156.69 77.672V95H155.25V94.112C153.986 94.864 152.706 95.24 151.41 95.24C150.818 95.24 150.306 95.168 149.874 95.024C149.442 94.896 149.002 94.632 148.554 94.232C147.642 93.416 147.186 91.824 147.186 89.456C147.186 87.072 147.57 85.36 148.338 84.32C149.106 83.28 150.402 82.76 152.226 82.76C152.93 82.76 153.938 82.864 155.25 83.072V77.672H156.69ZM149.61 93.152C149.914 93.456 150.21 93.664 150.498 93.776C150.802 93.888 151.186 93.944 151.65 93.944C152.13 93.944 152.674 93.856 153.282 93.68C153.906 93.504 154.394 93.336 154.746 93.176L155.25 92.912V84.32C153.97 84.128 152.978 84.032 152.274 84.032C150.914 84.032 149.97 84.448 149.442 85.28C148.93 86.112 148.674 87.4 148.674 89.144C148.674 91.192 148.986 92.528 149.61 93.152ZM160.277 95V83H161.693V84.728C162.285 84.312 163.005 83.912 163.853 83.528C164.717 83.144 165.509 82.888 166.229 82.76V84.2C165.541 84.344 164.821 84.568 164.069 84.872C163.317 85.16 162.733 85.416 162.317 85.64L161.693 86V95H160.277ZM167.257 83H168.721L171.913 93.752H172.777L175.993 83H177.457L172.273 100.4H170.833L172.441 95H170.785L167.257 83Z" fill="black"/>
</svg>
